<svg xmlns="http://www.w3.org/2000/svg" xmlns:xlink="http://www.w3.org/1999/xlink" stroke-miterlimit="10" stroke-linecap="square" stroke="none" fill="none" viewBox="0 0 542.0922384701912 540" version="1.1" style="max-height: 500px" width="542.0922384701912" height="540"><clipPath id="g3ebb79490f6_0_12.0"><path clip-rule="nonzero" d="m0 0l960.0 0l0 540.0l-960.0 0l0 -540.0z"/></clipPath><g clip-path="url(#g3ebb79490f6_0_12.0)"><path fill-rule="evenodd" d="m0 0l960.0 0l0 540.0l-960.0 0z" fill-opacity="0.0" fill="#000000"/><path fill-rule="evenodd" d="m0 90.0c0 -49.705627 40.294373 -90.0 90.0 -90.0c23.869484 0 46.761337 9.482116 63.639618 26.36039c16.878265 16.878273 26.360382 39.770126 26.360382 63.63961c0 49.705627 -40.294373 90.0 -90.0 90.0c-49.705627 0 -90.0 -40.294373 -90.0 -90.0zm70.6716 0c0 10.674782 8.653618 19.3284 19.3284 19.3284c10.674782 0 19.3284 -8.653618 19.3284 -19.3284c0 -10.674782 -8.653618 -19.3284 -19.3284 -19.3284c-10.674782 0 -19.3284 8.653618 -19.3284 19.3284z" fill="#d97706"/><path fill-rule="evenodd" d="m0 270.0c0 -49.705627 40.294373 -90.0 90.0 -90.0c23.869484 0 46.761337 9.482117 63.639618 26.360382c16.878265 16.87828 26.360382 39.770126 26.360382 63.639618c0 49.705627 -40.294373 90.0 -90.0 90.0c-49.705627 0 -90.0 -40.294373 -90.0 -90.0zm70.6716 0c0 10.674774 8.653618 19.3284 19.3284 19.3284c10.674782 0 19.3284 -8.6536255 19.3284 -19.3284c0 -10.674774 -8.653618 -19.3284 -19.3284 -19.3284c-10.674782 0 -19.3284 8.6536255 -19.3284 19.3284z" fill="#d97706"/><path fill-rule="evenodd" d="m0 450.0c0 -49.705627 40.294373 -90.0 90.0 -90.0c23.869484 0 46.761337 9.482117 63.639618 26.360382c16.878265 16.878296 26.360382 39.77014 26.360382 63.639618c0 49.705627 -40.294373 90.0 -90.0 90.0c-49.705627 0 -90.0 -40.294373 -90.0 -90.0zm70.6716 0c0 10.674774 8.653618 19.3284 19.3284 19.3284c10.674782 0 19.3284 -8.6536255 19.3284 -19.3284c0 -10.674774 -8.653618 -19.3284 -19.3284 -19.3284c-10.674782 0 -19.3284 8.6536255 -19.3284 19.3284z" fill="#d97706"/><path fill-rule="evenodd" d="m450.0 0c49.705627 0 90.0 40.294373 90.0 90.0c0 23.869484 -9.482117 46.761337 -26.360413 63.639618c-16.878265 16.878265 -39.77011 26.360382 -63.639587 26.360382c-49.705627 0 -90.0 -40.294373 -90.0 -90.0c0 -49.705627 40.294373 -90.0 90.0 -90.0zm0 70.6716c-10.674774 0 -19.3284 8.653618 -19.3284 19.3284c0 10.674782 8.6536255 19.3284 19.3284 19.3284c10.674774 0 19.3284 -8.653618 19.3284 -19.3284c0 -10.674782 -8.6536255 -19.3284 -19.3284 -19.3284z" fill="#d97706"/><path fill-rule="evenodd" d="m270.0 0c49.705627 0 90.0 40.294373 90.0 90.0c0 23.869484 -9.482117 46.761337 -26.360382 63.639618c-16.878296 16.878265 -39.77014 26.360382 -63.639618 26.360382c-49.705627 0 -90.0 -40.294373 -90.0 -90.0c0 -49.705627 40.294373 -90.0 90.0 -90.0zm0 70.6716c-10.674774 0 -19.3284 8.653618 -19.3284 19.3284c0 10.674782 8.6536255 19.3284 19.3284 19.3284c10.674774 0 19.3284 -8.653618 19.3284 -19.3284c0 -10.674782 -8.6536255 -19.3284 -19.3284 -19.3284z" fill="#d97706"/><path fill-rule="evenodd" d="m270.0 180.0c49.705627 0 90.0 40.294373 90.0 90.0c0 23.869476 -9.482117 46.761322 -26.360382 63.639618c-16.878296 16.878265 -39.77014 26.360382 -63.639618 26.360382c-49.705627 0 -90.0 -40.294373 -90.0 -90.0c0 -49.705627 40.294373 -90.0 90.0 -90.0zm0 70.6716c-10.674774 0 -19.3284 8.6536255 -19.3284 19.3284c0 10.674774 8.6536255 19.3284 19.3284 19.3284c10.674774 0 19.3284 -8.6536255 19.3284 -19.3284c0 -10.674774 -8.6536255 -19.3284 -19.3284 -19.3284z" fill="#d97706"/></g></svg>